<svg width="24" height="19" viewBox="0 0 24 19" fill="none" xmlns="http://www.w3.org/2000/svg">
<path d="M23.4986 3.45447C23.2226 2.38357 22.4094 1.54031 21.3768 1.25409C19.505 0.733948 12 0.733948 12 0.733948C12 0.733948 4.49498 0.733948 2.62317 1.25409C1.5907 1.54031 0.777375 2.38357 0.501422 3.45447C0 5.39541 0 9.44521 0 9.44521C0 9.44521 0 13.4949 0.501422 15.4357C0.777375 16.5066 1.5907 17.3501 2.62317 17.6362C4.49498 18.1562 12 18.1562 12 18.1562C12 18.1562 19.505 18.1562 21.3768 17.6362C22.4094 17.3501 23.2226 16.5066 23.4986 15.4357C24 13.4949 24 9.44521 24 9.44521C24 9.44521 24 5.39541 23.4986 3.45447ZM9.59986 13.1786V5.71177L15.8351 9.44521L9.59986 13.1786Z" fill="white"/>
</svg>
