<?xml version="1.0" encoding="utf-8"?>
<!-- Generator: Adobe Illustrator 25.0.0, SVG Export Plug-In . SVG Version: 6.00 Build 0)  -->
<svg version="1.1" id="Camada_1" xmlns="http://www.w3.org/2000/svg" xmlns:xlink="http://www.w3.org/1999/xlink" x="0px" y="0px"
	 viewBox="0 0 335.1 108" style="enable-background:new 0 0 335.1 108;" xml:space="preserve">
<style type="text/css">
	.st0{fill:#615046;}
	.st1{fill:#FE6101;}
</style>
<path class="st0" d="M251.3,53.8c0,8.3,2.5,16.4,7.1,23.3c4.6,6.9,11.1,12.3,18.8,15.4c7.7,3.2,16.1,4,24.2,2.4
	c8.1-1.6,15.6-5.6,21.4-11.5c5.9-5.9,9.8-13.3,11.5-21.4s0.8-16.5-2.4-24.2c-3.2-7.7-8.5-14.2-15.4-18.8c-6.9-4.6-15-7.1-23.3-7.1
	v3.5c7.6,0,15,2.3,21.3,6.5c6.3,4.2,11.2,10.2,14.1,17.2s3.7,14.7,2.2,22.2c-1.5,7.4-5.1,14.3-10.5,19.7c-5.4,5.4-12.2,9-19.7,10.5
	c-7.4,1.5-15.2,0.7-22.2-2.2c-7-2.9-13-7.8-17.2-14.1c-4.2-6.3-6.5-13.7-6.5-21.3H251.3z"/>
<path class="st0" d="M281.4,78.2l-3.4-2L289,57.3h-10.9v-3.5h15.1v3.3L281.4,78.2z"/>
<path class="st1" d="M258.3,43.2l9.1-8.9c0.7-0.6,1.3-1.4,1.7-2.1c0.4-0.7,0.7-1.6,0.7-2.5c0-0.5-0.1-1-0.2-1.4
	c-0.2-0.5-0.5-0.9-0.8-1.2c-0.7-0.7-1.7-1-2.7-1c-0.5,0-1,0.1-1.5,0.3c-0.5,0.2-0.9,0.5-1.2,0.9c-0.7,0.8-1.1,1.8-1.3,2.9l-3.9-0.6
	c0.1-0.9,0.4-1.8,0.8-2.7c0.4-0.8,1-1.5,1.7-2.1c0.7-0.6,1.5-1.1,2.4-1.4c1-0.3,2-0.5,3-0.5c1,0,2,0.1,2.9,0.4
	c0.9,0.3,1.8,0.7,2.5,1.3c0.8,0.6,1.4,1.4,1.8,2.3c0.4,0.9,0.6,1.9,0.6,2.8c0,0.7-0.1,1.4-0.3,2.1c-0.2,0.6-0.5,1.3-0.8,1.8
	c-0.3,0.6-0.7,1.1-1.2,1.6c-0.5,0.5-1,1-1.5,1.5l-6.8,6.5h10.6v3.6h-15.6V43.2z"/>
<path class="st1" d="M287.5,42h-10.8v-3.5l10-15.1h4.8v15.2h3.3V42h-3.3v4.9h-3.9V42z M287.5,28L287.5,28l-6.7,10.5h6.7V28z"/>
<path class="st1" d="M0,38.3h4.2v23.5H0V38.3z"/>
<path class="st1" d="M135.3,45.4c0.9,0,1.8,0.2,2.7,0.5c0.7,0.3,1.3,0.8,1.8,1.4c0.5,0.6,0.8,1.3,1,2.1c0.2,0.8,0.3,1.5,0.3,2.3v9.9
	h-4v-8.7c0-0.5,0-1-0.1-1.4c-0.1-0.5-0.2-0.9-0.4-1.4c-0.2-0.4-0.5-0.8-0.9-1c-0.5-0.3-1-0.4-1.5-0.4c-0.6,0-1.1,0.1-1.6,0.3
	c-0.5,0.2-0.9,0.6-1.2,1c-0.3,0.4-0.6,0.9-0.7,1.4c-0.2,0.5-0.2,1-0.2,1.6v8.7h-4V36.7h4v11.4h0.1c0.2-0.4,0.4-0.7,0.7-1
	c0.3-0.3,0.7-0.6,1-0.9c0.4-0.3,0.9-0.5,1.4-0.6C134.2,45.5,134.8,45.4,135.3,45.4z"/>
<path class="st1" d="M160.3,54v0.5c0,0.2,0,0.3,0,0.5h-12.1c0,0.6,0.2,1.1,0.5,1.6c0.2,0.5,0.6,0.9,1,1.2c0.4,0.4,0.9,0.6,1.4,0.8
	c0.5,0.2,1.1,0.3,1.7,0.3c0.9,0,1.7-0.2,2.5-0.5c0.7-0.4,1.3-0.9,1.7-1.5l2.7,2.1c-0.8,1.1-1.8,1.9-3,2.5c-1.2,0.6-2.5,0.8-3.8,0.7
	c-1.2,0-2.3-0.2-3.4-0.6c-1-0.3-2-0.9-2.8-1.6c-0.8-0.7-1.4-1.6-1.8-2.6c-0.4-1.1-0.7-2.3-0.7-3.5c0-1.2,0.2-2.4,0.7-3.5
	c0.4-1,1-1.9,1.8-2.7c0.8-0.8,1.7-1.3,2.7-1.7c1.1-0.4,2.2-0.6,3.3-0.6c1,0,2.1,0.2,3.1,0.5c0.9,0.4,1.8,0.9,2.4,1.6
	c0.7,0.8,1.3,1.7,1.6,2.7C160.1,51.5,160.3,52.8,160.3,54z M156.3,52.3c0-0.5-0.1-1-0.2-1.5c-0.1-0.5-0.4-0.9-0.7-1.2
	c-0.3-0.4-0.7-0.6-1.2-0.8c-0.5-0.2-1.1-0.3-1.7-0.3c-1.1,0-2.2,0.3-3,1.1c-0.4,0.3-0.7,0.8-1,1.2c-0.2,0.5-0.4,1-0.4,1.5H156.3z"/>
<path class="st1" d="M163.6,45.9h3.8v2.5h0.1c0.4-0.9,1-1.6,1.8-2.1c0.9-0.6,2-0.9,3.1-0.9c0.9,0,1.8,0.2,2.7,0.5
	c0.7,0.3,1.3,0.8,1.8,1.4c0.5,0.6,0.8,1.3,1,2.1c0.2,0.8,0.3,1.5,0.3,2.3v9.9h-4V53c0-0.5,0-1-0.1-1.5c-0.1-0.5-0.2-0.9-0.4-1.4
	c-0.2-0.4-0.5-0.8-0.9-1c-0.5-0.3-1-0.4-1.5-0.4c-0.6,0-1.2,0.1-1.7,0.4c-0.5,0.2-0.9,0.6-1.2,1c-0.3,0.4-0.5,0.9-0.7,1.4
	c-0.2,0.5-0.2,1-0.2,1.6v8.7h-4V45.9z"/>
<path class="st1" d="M198.4,61.8h-3.8v-2.4h-0.1c-0.5,0.9-1.4,1.7-2.3,2.1c-1,0.5-2.1,0.7-3.2,0.7c-1.1,0-2.2-0.2-3.3-0.7
	c-0.9-0.4-1.8-1-2.5-1.8c-0.7-0.8-1.2-1.7-1.6-2.7c-0.7-2.1-0.7-4.5,0-6.6c0.4-1,0.9-1.9,1.6-2.7c0.7-0.8,1.6-1.4,2.5-1.8
	c1-0.4,2-0.6,3-0.6c0.7,0,1.3,0.1,2,0.2c0.5,0.2,1,0.4,1.5,0.6c0.4,0.2,0.8,0.5,1.2,0.8c0.3,0.2,0.5,0.5,0.8,0.8h0.1V36.7h4
	L198.4,61.8z M185.3,53.8c0,0.6,0.1,1.3,0.3,1.9c0.2,0.6,0.5,1.2,0.8,1.7c0.4,0.5,0.9,0.9,1.4,1.2c0.6,0.3,1.3,0.5,2,0.5
	c0.7,0,1.3-0.1,2-0.5c0.6-0.3,1.1-0.7,1.5-1.2c0.4-0.5,0.7-1,0.9-1.6c0.2-0.6,0.3-1.2,0.3-1.8c0-0.6-0.1-1.3-0.3-1.9
	c-0.2-0.6-0.5-1.2-0.9-1.7c-0.4-0.5-0.9-0.9-1.5-1.2c-0.6-0.3-1.3-0.5-2-0.5c-0.7,0-1.4,0.1-2,0.5c-0.6,0.3-1,0.7-1.4,1.2
	c-0.4,0.5-0.7,1-0.8,1.6C185.4,52.5,185.3,53.2,185.3,53.8L185.3,53.8z"/>
<path class="st1" d="M217.7,54v0.5c0,0.2,0,0.3,0,0.5h-12.1c0,0.5,0.2,1.1,0.4,1.6c0.2,0.5,0.6,0.9,1,1.2c0.4,0.4,0.9,0.6,1.4,0.8
	c0.5,0.2,1.1,0.3,1.7,0.3c0.9,0,1.7-0.2,2.5-0.5c0.7-0.4,1.3-0.9,1.7-1.5l2.7,2.1c-0.8,1.1-1.8,1.9-3,2.5c-1.2,0.6-2.5,0.8-3.8,0.7
	c-1.2,0-2.3-0.2-3.4-0.6c-1-0.4-1.9-0.9-2.7-1.6c-0.8-0.7-1.4-1.6-1.8-2.6c-0.4-1.1-0.7-2.3-0.6-3.5c0-1.2,0.2-2.4,0.6-3.5
	c0.4-1,1-1.9,1.8-2.7c0.8-0.8,1.7-1.3,2.7-1.7c1.1-0.4,2.2-0.6,3.3-0.6c1,0,2.1,0.2,3.1,0.5c0.9,0.4,1.8,0.9,2.4,1.6
	c0.7,0.8,1.3,1.7,1.6,2.7C217.5,51.5,217.7,52.8,217.7,54L217.7,54z M213.7,52.3c0-0.5-0.1-1-0.2-1.5c-0.1-0.5-0.4-0.9-0.7-1.2
	c-0.3-0.4-0.7-0.6-1.2-0.8c-0.5-0.2-1.1-0.3-1.7-0.3c-1.1,0-2.2,0.3-3,1.1c-0.4,0.3-0.7,0.8-1,1.2c-0.2,0.5-0.4,1-0.4,1.5H213.7z"/>
<path class="st1" d="M220.9,45.9h3.8v2.7h0.1c0.4-0.9,1.1-1.7,1.9-2.3c0.8-0.6,1.8-0.9,2.8-0.9h0.5c0.2,0,0.3,0,0.5,0.1v3.7
	c-0.2-0.1-0.5-0.1-0.7-0.1c-0.2,0-0.4,0-0.5,0c-0.8,0-1.5,0.1-2.2,0.5c-0.5,0.3-1,0.7-1.3,1.2c-0.3,0.4-0.5,0.9-0.6,1.4
	c-0.1,0.4-0.2,0.8-0.2,1.2v8.5h-4V45.9z"/>
<path class="st1" d="M15.3,49.1v-3.2H18v-4.7h3.9v4.7h4v3.2h-4v7.4c0,0.6,0.1,1.2,0.4,1.8c0.3,0.5,0.8,0.7,1.7,0.7
	c0.3,0,0.6,0,0.9-0.1c0.3-0.1,0.6-0.1,0.8-0.2l0.1,3.1C25.5,61.9,25,62,24.6,62c-0.5,0.1-0.9,0.1-1.4,0.1c-0.9,0-1.8-0.1-2.6-0.5
	C20,61.4,19.5,61,19,60.5c-0.4-0.5-0.7-1.1-0.8-1.8C18.1,58,18,57.2,18,56.5v-7.4H15.3z"/>
<path class="st1" d="M29.1,45.9h3.8v2.7H33c0.4-0.9,1.1-1.7,1.8-2.3c0.8-0.6,1.8-0.9,2.8-0.9h0.5c0.2,0,0.3,0,0.5,0.1v3.7
	c-0.2-0.1-0.4-0.1-0.7-0.1h-0.5c-0.8,0-1.5,0.1-2.2,0.5c-0.5,0.3-1,0.7-1.3,1.2c-0.3,0.4-0.5,0.9-0.6,1.4c-0.1,0.4-0.1,0.8-0.2,1.2
	v8.5h-4V45.9z"/>
<path class="st1" d="M40.3,45.9h4.4l4.4,11.6h0.1l3.9-11.6h4.1l-7.5,19.3c-0.3,0.7-0.6,1.3-0.9,1.9c-0.3,0.5-0.7,1-1.2,1.4
	c-0.5,0.4-1,0.7-1.6,0.9c-0.7,0.2-1.5,0.3-2.3,0.3c-0.3,0-0.7,0-1,0c-0.4,0-0.7-0.1-1-0.2l0.3-3.5c0.3,0.1,0.5,0.1,0.8,0.2
	c0.2,0,0.5,0,0.7,0c0.4,0,0.7,0,1.1-0.2c0.3-0.1,0.5-0.3,0.7-0.5c0.2-0.2,0.4-0.5,0.5-0.8c0.2-0.3,0.3-0.7,0.5-1.1l0.8-2L40.3,45.9z
	"/>
<path class="st1" d="M75.3,45.9v14.5c0,1.3-0.2,2.7-0.5,3.9c-0.3,1.1-0.9,2.1-1.6,2.9c-0.8,0.8-1.7,1.5-2.8,1.9
	c-1.3,0.5-2.6,0.7-4,0.7c-0.7,0-1.4-0.1-2-0.2c-0.7-0.1-1.4-0.3-2.1-0.5c-0.7-0.2-1.4-0.5-2-0.8c-0.6-0.3-1.2-0.7-1.7-1.2l2.3-3.1
	c0.8,0.7,1.6,1.3,2.6,1.7c0.9,0.4,1.9,0.6,3,0.6c0.8,0,1.6-0.1,2.4-0.4c0.6-0.2,1.1-0.6,1.6-1.2c0.4-0.5,0.7-1.1,0.8-1.7
	c0.2-0.7,0.2-1.5,0.2-2.2v-1.2h-0.1c-0.6,0.8-1.3,1.4-2.2,1.8c-0.9,0.4-2,0.6-3,0.6c-1.1,0-2.2-0.2-3.3-0.7c-0.9-0.4-1.8-1-2.5-1.7
	c-0.7-0.8-1.2-1.7-1.6-2.6c-0.4-1-0.6-2.1-0.6-3.2c0-1.1,0.2-2.2,0.6-3.2c0.3-1,0.9-1.9,1.6-2.7c0.7-0.8,1.6-1.4,2.5-1.8
	c1-0.5,2.1-0.7,3.2-0.7c1.1,0,2.2,0.2,3.2,0.7c1,0.5,1.8,1.2,2.3,2.2v-2.4H75.3z M66.8,48.7c-0.7,0-1.3,0.1-1.9,0.4
	c-0.6,0.2-1,0.6-1.4,1.1c-0.4,0.5-0.7,1-0.9,1.6c-0.2,0.6-0.3,1.3-0.3,2c0,0.6,0.1,1.3,0.3,1.8c0.2,0.6,0.5,1.1,0.9,1.6
	c0.4,0.5,0.9,0.9,1.4,1.2c0.6,0.3,1.2,0.4,1.9,0.4c0.7,0,1.4-0.1,2-0.4c0.6-0.3,1.1-0.7,1.5-1.2c0.4-0.5,0.7-1,1-1.6
	c0.2-0.6,0.3-1.2,0.3-1.9c0-0.7-0.1-1.3-0.3-2c-0.2-0.6-0.5-1.1-1-1.6c-0.4-0.5-0.9-0.8-1.5-1.1C68.2,48.8,67.5,48.6,66.8,48.7z"/>
<path class="st1" d="M95.6,45.9v14.5c0,1.3-0.2,2.7-0.5,3.9c-0.3,1.1-0.9,2.1-1.6,3c-0.8,0.8-1.7,1.5-2.8,1.9
	c-1.3,0.5-2.6,0.7-4,0.7c-0.7,0-1.4-0.1-2-0.2c-0.7-0.1-1.4-0.3-2.1-0.5c-0.7-0.2-1.4-0.5-2-0.8c-0.6-0.3-1.2-0.7-1.7-1.2l2.3-3.1
	c0.8,0.7,1.7,1.3,2.6,1.7c0.9,0.4,1.9,0.6,2.9,0.6c0.8,0,1.6-0.1,2.4-0.4c0.6-0.2,1.1-0.6,1.6-1.2c0.4-0.5,0.7-1.1,0.8-1.7
	c0.2-0.7,0.2-1.5,0.2-2.2v-1.2c-0.6,0.8-1.3,1.4-2.2,1.8c-0.9,0.4-2,0.6-3,0.6c-1.1,0-2.2-0.2-3.2-0.7c-1-0.4-1.8-1-2.5-1.7
	C80,58.9,79.5,58,79.1,57c-0.4-1-0.6-2.1-0.6-3.2c0-1.1,0.2-2.2,0.5-3.2c0.3-1,0.9-1.9,1.6-2.7c0.7-0.8,1.5-1.4,2.5-1.8
	c1-0.5,2.1-0.7,3.2-0.7c1.1,0,2.2,0.2,3.1,0.7c1,0.5,1.8,1.2,2.3,2.2h0.1v-2.4H95.6z M87.1,48.7c-0.7,0-1.3,0.1-1.9,0.4
	c-0.5,0.2-1,0.6-1.4,1.1c-0.4,0.5-0.7,1-0.9,1.6c-0.2,0.6-0.3,1.3-0.3,2c0,0.6,0.1,1.3,0.3,1.8c0.2,0.6,0.5,1.1,0.8,1.6
	c0.4,0.5,0.9,0.9,1.4,1.2c0.6,0.3,1.2,0.4,1.9,0.4c0.7,0,1.4-0.1,2-0.4c0.6-0.3,1.1-0.7,1.5-1.2c0.4-0.5,0.7-1,0.9-1.6
	c0.2-0.6,0.3-1.2,0.3-1.9c0-0.7-0.1-1.3-0.3-2c-0.2-0.6-0.5-1.1-0.9-1.6c-0.4-0.5-0.9-0.8-1.5-1.1C88.5,48.8,87.8,48.6,87.1,48.7z"
	/>
<path class="st1" d="M114.9,54v0.5c0,0.2,0,0.3,0,0.5h-12.1c0,0.5,0.2,1.1,0.4,1.6c0.2,0.5,0.6,0.9,1,1.2c0.4,0.4,0.9,0.6,1.4,0.8
	c0.5,0.2,1.1,0.3,1.7,0.3c0.9,0,1.7-0.2,2.5-0.5c0.7-0.4,1.3-0.9,1.7-1.5l2.7,2.1c-0.8,1.1-1.8,1.9-3,2.5c-1.2,0.6-2.5,0.8-3.8,0.7
	c-1.2,0-2.3-0.2-3.4-0.6c-1-0.4-2-0.9-2.8-1.6c-0.8-0.7-1.4-1.6-1.8-2.6c-0.4-1.1-0.7-2.3-0.6-3.5c0-1.2,0.2-2.4,0.6-3.5
	c0.4-1,1-1.9,1.8-2.7c0.8-0.8,1.7-1.3,2.7-1.7c1.1-0.4,2.2-0.6,3.3-0.6c1,0,2.1,0.2,3.1,0.5c0.9,0.4,1.8,0.9,2.4,1.6
	c0.7,0.8,1.3,1.7,1.6,2.7C114.7,51.5,114.9,52.8,114.9,54L114.9,54z M110.9,52.3c0-0.5-0.1-1-0.2-1.5c-0.1-0.5-0.4-0.9-0.7-1.2
	c-0.3-0.4-0.7-0.6-1.2-0.8c-0.5-0.2-1.1-0.3-1.7-0.3c-1.1,0-2.2,0.3-3,1.1c-0.4,0.3-0.7,0.8-1,1.2s-0.4,1-0.4,1.5H110.9z"/>
</svg>
